<svg xmlns="http://www.w3.org/2000/svg" xmlns:xlink="http://www.w3.org/1999/xlink" width="500" zoomAndPan="magnify" viewBox="0 0 375 374.999991" height="500" preserveAspectRatio="xMidYMid meet" version="1.2"><defs/><g id="04ce9c2fe3"><path style=" stroke:none;fill-rule:nonzero;fill:#7053fe;fill-opacity:1;" d="M 94.097656 123.480469 L 94.773438 123.480469 C 95.328125 123.480469 95.882812 123.476562 96.433594 123.480469 C 97.097656 123.480469 97.761719 123.476562 98.425781 123.476562 C 99.800781 123.476562 101.175781 123.476562 102.554688 123.476562 C 103.996094 123.476562 105.441406 123.476562 106.886719 123.476562 C 109.023438 123.476562 111.160156 123.476562 113.296875 123.476562 L 115.5 123.476562 C 118.054688 123.476562 120.605469 123.472656 123.160156 123.472656 C 126.332031 123.472656 129.507812 123.46875 132.679688 123.472656 L 132.90625 123.472656 C 134.121094 123.472656 135.332031 123.46875 136.542969 123.46875 C 137.761719 123.46875 138.976562 123.46875 140.195312 123.46875 C 140.917969 123.46875 141.640625 123.46875 142.363281 123.46875 C 142.902344 123.46875 143.441406 123.46875 143.980469 123.46875 C 144.199219 123.46875 144.417969 123.46875 144.640625 123.46875 C 144.933594 123.46875 145.230469 123.46875 145.527344 123.46875 L 145.789062 123.46875 C 145.992188 123.46875 146.195312 123.480469 146.398438 123.492188 L 146.585938 123.683594 C 146.605469 123.945312 146.613281 124.203125 146.613281 124.46875 L 146.613281 124.71875 C 146.613281 124.996094 146.613281 125.277344 146.613281 125.558594 C 146.613281 125.757812 146.613281 125.960938 146.613281 126.160156 C 146.613281 126.71875 146.613281 127.273438 146.613281 127.828125 C 146.613281 128.425781 146.613281 129.027344 146.613281 129.625 C 146.613281 130.730469 146.613281 131.835938 146.613281 132.945312 C 146.613281 133.96875 146.613281 134.992188 146.613281 136.015625 L 146.613281 137.046875 C 146.613281 139.632812 146.613281 142.21875 146.613281 144.808594 C 146.609375 147.101562 146.609375 149.398438 146.613281 151.691406 C 146.613281 154.613281 146.613281 157.539062 146.613281 160.460938 C 146.613281 161.480469 146.613281 162.503906 146.613281 163.523438 C 146.613281 164.6875 146.613281 165.851562 146.613281 167.015625 C 146.613281 167.605469 146.613281 168.199219 146.613281 168.792969 C 146.617188 174.359375 146.617188 174.359375 146.179688 176.8125 L 146.113281 177.171875 C 145.175781 182.445312 143.253906 187.703125 140.128906 192.082031 L 139.882812 192.433594 C 138.085938 194.972656 135.933594 197.480469 133.476562 199.398438 C 133.359375 199.496094 133.242188 199.59375 133.125 199.691406 C 132.355469 200.332031 131.570312 200.921875 130.722656 201.460938 C 130.527344 201.585938 130.332031 201.714844 130.140625 201.84375 C 128.28125 203.070312 126.25 204.121094 124.167969 204.90625 L 123.945312 204.992188 C 121.171875 206.023438 118.332031 206.714844 115.390625 207.027344 C 115.320312 207.035156 115.246094 207.042969 115.171875 207.050781 C 113.210938 207.257812 111.242188 207.296875 109.269531 207.296875 L 108.640625 207.296875 C 108.074219 207.296875 107.507812 207.300781 106.941406 207.300781 C 106.324219 207.300781 105.710938 207.300781 105.097656 207.300781 C 103.6875 207.304688 102.277344 207.304688 100.867188 207.304688 L 98.777344 207.304688 C 95.792969 207.308594 92.804688 207.3125 89.816406 207.308594 L 89.589844 207.308594 C 87.171875 207.3125 84.75 207.3125 82.328125 207.316406 C 79.449219 207.320312 76.605469 207.324219 73.796875 207.320312 L 73.589844 207.320312 C 72.472656 207.324219 71.359375 207.324219 70.246094 207.324219 C 69.128906 207.328125 68.011719 207.328125 66.894531 207.328125 C 66.285156 207.328125 65.679688 207.328125 65.074219 207.328125 C 64.523438 207.332031 63.96875 207.332031 63.414062 207.328125 C 63.214844 207.328125 63.011719 207.328125 62.8125 207.332031 C 62.539062 207.332031 62.269531 207.332031 61.996094 207.328125 L 61.757812 207.332031 C 61.539062 207.328125 61.539062 207.328125 61.183594 207.28125 L 60.992188 207.140625 C 60.851562 206.785156 60.859375 206.4375 60.863281 206.058594 L 60.859375 205.796875 C 60.859375 205.507812 60.859375 205.214844 60.863281 204.921875 C 60.859375 204.714844 60.859375 204.503906 60.859375 204.292969 C 60.859375 203.710938 60.859375 203.132812 60.859375 202.550781 C 60.859375 201.992188 60.859375 201.429688 60.859375 200.871094 C 60.859375 199.652344 60.859375 198.433594 60.859375 197.214844 C 60.859375 196.144531 60.859375 195.078125 60.859375 194.007812 L 60.859375 192.933594 C 60.859375 190.230469 60.859375 187.53125 60.859375 184.832031 C 60.863281 182.433594 60.863281 180.039062 60.859375 177.644531 C 60.859375 174.664062 60.859375 171.6875 60.859375 168.707031 L 60.859375 168.492188 C 60.859375 167.425781 60.859375 166.359375 60.859375 165.296875 C 60.859375 164.082031 60.859375 162.867188 60.859375 161.652344 C 60.859375 161.035156 60.859375 160.414062 60.859375 159.796875 C 60.851562 155.027344 60.851562 155.027344 61.183594 152.847656 C 61.210938 152.644531 61.238281 152.445312 61.269531 152.242188 C 61.617188 149.832031 62.238281 147.433594 63.082031 145.152344 L 63.171875 144.910156 C 63.886719 142.988281 64.78125 141.117188 65.835938 139.359375 L 65.949219 139.167969 C 66.523438 138.210938 67.152344 137.300781 67.832031 136.414062 L 67.964844 136.238281 C 68.488281 135.554688 69.027344 134.898438 69.613281 134.269531 C 69.789062 134.078125 69.960938 133.882812 70.128906 133.679688 C 70.90625 132.789062 71.765625 131.9375 72.675781 131.1875 L 72.832031 131.058594 C 74.21875 129.894531 75.6875 128.886719 77.238281 127.957031 L 77.414062 127.851562 C 79.3125 126.722656 81.328125 125.832031 83.414062 125.109375 C 83.488281 125.082031 83.5625 125.054688 83.640625 125.027344 C 85.855469 124.246094 88.199219 123.792969 90.539062 123.585938 L 90.804688 123.5625 C 91.898438 123.46875 92.996094 123.480469 94.097656 123.480469 M 83.6875 139.921875 C 80.628906 141.921875 78.253906 144.429688 76.476562 147.621094 L 76.300781 147.941406 C 74.835938 150.71875 74.050781 153.945312 74.066406 157.082031 C 74.066406 157.242188 74.066406 157.398438 74.066406 157.558594 C 74.066406 157.992188 74.066406 158.421875 74.066406 158.855469 C 74.066406 159.324219 74.066406 159.789062 74.066406 160.257812 C 74.066406 161.171875 74.066406 162.085938 74.066406 163 C 74.066406 164.066406 74.066406 165.128906 74.066406 166.195312 C 74.066406 168.09375 74.070312 169.992188 74.070312 171.890625 C 74.074219 173.734375 74.074219 175.574219 74.074219 177.417969 C 74.070312 179.640625 74.070312 181.863281 74.074219 184.085938 L 74.074219 184.40625 C 74.074219 185.148438 74.074219 185.890625 74.074219 186.632812 C 74.074219 187.535156 74.074219 188.4375 74.074219 189.34375 C 74.074219 189.804688 74.078125 190.265625 74.074219 190.726562 C 74.074219 191.148438 74.074219 191.570312 74.078125 191.988281 C 74.078125 192.144531 74.078125 192.296875 74.078125 192.449219 C 74.078125 192.65625 74.078125 192.863281 74.078125 193.070312 L 74.078125 193.417969 C 74.082031 193.714844 74.082031 193.714844 74.292969 193.984375 C 74.566406 194.027344 74.566406 194.027344 74.894531 194.019531 L 75.085938 194.019531 C 75.300781 194.019531 75.511719 194.019531 75.726562 194.019531 C 75.878906 194.019531 76.035156 194.019531 76.1875 194.019531 C 76.609375 194.019531 77.035156 194.019531 77.457031 194.019531 C 77.914062 194.019531 78.371094 194.019531 78.828125 194.019531 C 79.722656 194.023438 80.617188 194.023438 81.511719 194.019531 C 82.242188 194.019531 82.96875 194.019531 83.699219 194.019531 L 84.011719 194.019531 C 84.222656 194.019531 84.433594 194.019531 84.644531 194.019531 C 86.621094 194.023438 88.597656 194.019531 90.578125 194.019531 C 92.269531 194.019531 93.964844 194.019531 95.65625 194.019531 C 97.835938 194.023438 100.011719 194.023438 102.1875 194.019531 L 102.503906 194.019531 C 103.230469 194.019531 103.953125 194.019531 104.679688 194.019531 C 105.566406 194.023438 106.457031 194.023438 107.34375 194.019531 C 107.792969 194.019531 108.246094 194.019531 108.699219 194.019531 C 110.644531 194.023438 112.546875 193.980469 114.476562 193.699219 L 114.761719 193.65625 C 118.25 193.132812 121.613281 191.8125 124.453125 189.707031 L 124.628906 189.578125 C 125.472656 188.945312 126.257812 188.253906 127.015625 187.523438 L 127.277344 187.273438 C 129.976562 184.640625 131.726562 181.066406 132.773438 177.484375 C 133.0625 176.445312 133.242188 175.386719 133.382812 174.316406 L 133.429688 173.964844 C 133.503906 173.300781 133.492188 172.632812 133.488281 171.964844 L 133.488281 171.507812 C 133.492188 171.089844 133.492188 170.671875 133.488281 170.257812 C 133.488281 169.804688 133.488281 169.355469 133.492188 168.90625 C 133.492188 168.023438 133.492188 167.144531 133.492188 166.261719 C 133.488281 165.546875 133.488281 164.828125 133.488281 164.113281 L 133.488281 163.804688 L 133.492188 163.183594 C 133.492188 161.242188 133.492188 159.304688 133.488281 157.363281 C 133.488281 155.699219 133.488281 154.03125 133.488281 152.367188 C 133.492188 150.226562 133.492188 148.085938 133.488281 145.945312 L 133.488281 145.636719 C 133.488281 144.921875 133.488281 144.207031 133.492188 143.488281 C 133.492188 142.617188 133.492188 141.746094 133.488281 140.875 C 133.488281 140.433594 133.488281 139.988281 133.488281 139.542969 C 133.492188 139.136719 133.492188 138.730469 133.488281 138.324219 C 133.488281 138.175781 133.488281 138.027344 133.488281 137.878906 C 133.488281 137.679688 133.488281 137.480469 133.488281 137.28125 L 133.488281 136.945312 L 133.476562 136.699219 L 133.382812 136.601562 C 133.175781 136.59375 132.972656 136.589844 132.765625 136.589844 L 132.566406 136.589844 C 132.347656 136.589844 132.125 136.589844 131.902344 136.589844 L 131.421875 136.589844 C 130.980469 136.585938 130.539062 136.585938 130.097656 136.585938 C 129.625 136.585938 129.148438 136.585938 128.671875 136.585938 C 127.632812 136.585938 126.589844 136.582031 125.550781 136.582031 L 123.597656 136.582031 C 121.796875 136.582031 119.996094 136.582031 118.191406 136.578125 L 116.4375 136.578125 C 114.554688 136.578125 112.675781 136.578125 110.796875 136.574219 C 108.863281 136.574219 106.933594 136.570312 105 136.570312 C 103.917969 136.570312 102.832031 136.570312 101.75 136.570312 C 100.824219 136.566406 99.902344 136.566406 98.976562 136.566406 C 98.503906 136.570312 98.035156 136.570312 97.5625 136.566406 C 92.625 136.554688 87.941406 137.234375 83.6875 139.921875 "/><path style=" stroke:none;fill-rule:nonzero;fill:#7053fe;fill-opacity:1;" d="M 112.101562 148.289062 L 112.289062 148.375 C 114.144531 149.273438 115.742188 150.589844 117.234375 151.992188 L 117.441406 152.191406 C 119.636719 154.316406 121.265625 157.203125 122.125 160.117188 C 122.875 162.785156 123.125 165.6875 122.648438 168.425781 L 122.605469 168.683594 C 122.117188 171.457031 121.113281 174.132812 119.417969 176.40625 L 119.199219 176.707031 C 118.667969 177.425781 118.082031 178.089844 117.464844 178.734375 C 117.339844 178.867188 117.214844 178.996094 117.089844 179.128906 C 115.226562 181.0625 112.734375 182.570312 110.203125 183.4375 L 109.96875 183.519531 C 106.570312 184.675781 103.132812 184.820312 99.617188 184.171875 C 96.464844 183.542969 93.589844 181.964844 91.148438 179.90625 C 90.910156 179.695312 90.671875 179.476562 90.441406 179.257812 L 90.300781 179.125 C 89.417969 178.296875 88.675781 177.394531 87.972656 176.40625 L 87.832031 176.214844 C 86.71875 174.628906 85.871094 172.847656 85.3125 170.992188 L 85.25 170.78125 C 84.324219 167.703125 84.222656 164.238281 84.945312 161.105469 C 85.710938 157.972656 87.195312 155.0625 89.386719 152.6875 C 89.566406 152.488281 89.742188 152.285156 89.914062 152.082031 C 91.851562 149.871094 94.644531 148.3125 97.378906 147.339844 C 102.203125 145.699219 107.53125 146.078125 112.101562 148.289062 M 99.246094 158.839844 C 97.984375 159.746094 97.011719 160.785156 96.332031 162.1875 C 95.738281 163.515625 95.515625 164.988281 95.667969 166.433594 C 95.84375 167.800781 96.367188 169.101562 97.191406 170.210938 C 97.914062 171.136719 98.734375 171.824219 99.753906 172.417969 L 99.933594 172.527344 C 101.230469 173.242188 102.671875 173.410156 104.125 173.394531 C 104.863281 173.371094 105.515625 173.222656 106.210938 172.988281 L 106.480469 172.902344 C 107.738281 172.445312 108.875 171.550781 109.746094 170.546875 C 110.746094 169.289062 111.316406 167.964844 111.566406 166.378906 C 111.726562 164.917969 111.472656 163.566406 110.925781 162.210938 C 110.3125 160.921875 109.378906 159.796875 108.226562 158.953125 C 106.96875 158.125 105.609375 157.589844 104.101562 157.480469 C 102.398438 157.445312 100.667969 157.882812 99.246094 158.839844 "/><g style="fill:#333333;fill-opacity:1;"><g transform="translate(154.538538, 185.459515)"><path style="stroke:none" d="M 37.65625 -18.265625 C 37.65625 -15.453125 37.304688 -12.894531 36.609375 -10.59375 C 35.910156 -8.300781 34.847656 -6.320312 33.421875 -4.65625 C 32.003906 -3 30.207031 -1.722656 28.03125 -0.828125 C 25.851562 0.0546875 23.28125 0.5 20.3125 0.5 C 17.332031 0.5 14.753906 0.0546875 12.578125 -0.828125 C 10.398438 -1.722656 8.601562 -3 7.1875 -4.65625 C 5.769531 -6.320312 4.710938 -8.304688 4.015625 -10.609375 C 3.316406 -12.921875 2.96875 -15.488281 2.96875 -18.3125 C 2.96875 -22.082031 3.582031 -25.367188 4.8125 -28.171875 C 6.050781 -30.972656 7.957031 -33.144531 10.53125 -34.6875 C 13.113281 -36.226562 16.390625 -37 20.359375 -37 C 24.304688 -37 27.554688 -36.226562 30.109375 -34.6875 C 32.660156 -33.144531 34.554688 -30.96875 35.796875 -28.15625 C 37.035156 -25.351562 37.65625 -22.054688 37.65625 -18.265625 Z M 11.0625 -18.265625 C 11.0625 -15.722656 11.378906 -13.535156 12.015625 -11.703125 C 12.660156 -9.867188 13.660156 -8.457031 15.015625 -7.46875 C 16.378906 -6.476562 18.144531 -5.984375 20.3125 -5.984375 C 22.5 -5.984375 24.273438 -6.476562 25.640625 -7.46875 C 27.003906 -8.457031 27.992188 -9.867188 28.609375 -11.703125 C 29.234375 -13.535156 29.546875 -15.722656 29.546875 -18.265625 C 29.546875 -22.085938 28.832031 -25.09375 27.40625 -27.28125 C 25.976562 -29.476562 23.628906 -30.578125 20.359375 -30.578125 C 18.179688 -30.578125 16.40625 -30.082031 15.03125 -29.09375 C 13.664062 -28.101562 12.660156 -26.691406 12.015625 -24.859375 C 11.378906 -23.023438 11.0625 -20.828125 11.0625 -18.265625 Z M 11.0625 -18.265625 "/></g></g><g style="fill:#333333;fill-opacity:1;"><g transform="translate(195.139772, 185.459515)"><path style="stroke:none" d="M 19.484375 -28.375 C 22.617188 -28.375 25.15625 -27.15625 27.09375 -24.71875 C 29.03125 -22.28125 30 -18.703125 30 -13.984375 C 30 -10.828125 29.539062 -8.171875 28.625 -6.015625 C 27.71875 -3.867188 26.457031 -2.242188 24.84375 -1.140625 C 23.226562 -0.046875 21.375 0.5 19.28125 0.5 C 17.9375 0.5 16.78125 0.332031 15.8125 0 C 14.851562 -0.34375 14.03125 -0.785156 13.34375 -1.328125 C 12.664062 -1.867188 12.082031 -2.445312 11.59375 -3.0625 L 11.1875 -3.0625 C 11.320312 -2.394531 11.421875 -1.710938 11.484375 -1.015625 C 11.554688 -0.316406 11.59375 0.359375 11.59375 1.015625 L 11.59375 12.265625 L 3.984375 12.265625 L 3.984375 -27.859375 L 10.171875 -27.859375 L 11.234375 -24.25 L 11.59375 -24.25 C 12.082031 -24.988281 12.6875 -25.675781 13.40625 -26.3125 C 14.125 -26.945312 14.984375 -27.445312 15.984375 -27.8125 C 16.984375 -28.1875 18.148438 -28.375 19.484375 -28.375 Z M 17.046875 -22.296875 C 15.710938 -22.296875 14.65625 -22.019531 13.875 -21.46875 C 13.09375 -20.925781 12.523438 -20.109375 12.171875 -19.015625 C 11.816406 -17.921875 11.625 -16.53125 11.59375 -14.84375 L 11.59375 -14.03125 C 11.59375 -12.238281 11.757812 -10.71875 12.09375 -9.46875 C 12.4375 -8.21875 13.007812 -7.269531 13.8125 -6.625 C 14.625 -5.976562 15.734375 -5.65625 17.140625 -5.65625 C 18.304688 -5.65625 19.257812 -5.976562 20 -6.625 C 20.75 -7.269531 21.3125 -8.21875 21.6875 -9.46875 C 22.0625 -10.726562 22.25 -12.265625 22.25 -14.078125 C 22.25 -16.804688 21.820312 -18.859375 20.96875 -20.234375 C 20.125 -21.609375 18.816406 -22.296875 17.046875 -22.296875 Z M 17.046875 -22.296875 "/></g></g><g style="fill:#333333;fill-opacity:1;"><g transform="translate(227.421489, 185.459515)"><path style="stroke:none" d="M 26.09375 -10.109375 C 26.09375 -7.953125 25.566406 -6.078125 24.515625 -4.484375 C 23.472656 -2.890625 21.945312 -1.660156 19.9375 -0.796875 C 17.9375 0.0664062 15.507812 0.5 12.65625 0.5 C 11.394531 0.5 10.160156 0.414062 8.953125 0.25 C 7.753906 0.0820312 6.601562 -0.160156 5.5 -0.484375 C 4.394531 -0.804688 3.34375 -1.207031 2.34375 -1.6875 L 2.34375 -8.875 C 4.070312 -8.101562 5.863281 -7.410156 7.71875 -6.796875 C 9.582031 -6.179688 11.425781 -5.875 13.25 -5.875 C 14.519531 -5.875 15.539062 -6.039062 16.3125 -6.375 C 17.082031 -6.707031 17.640625 -7.164062 17.984375 -7.75 C 18.335938 -8.332031 18.515625 -9 18.515625 -9.75 C 18.515625 -10.65625 18.207031 -11.429688 17.59375 -12.078125 C 16.976562 -12.734375 16.132812 -13.34375 15.0625 -13.90625 C 13.988281 -14.46875 12.78125 -15.070312 11.4375 -15.71875 C 10.59375 -16.125 9.671875 -16.613281 8.671875 -17.1875 C 7.671875 -17.757812 6.722656 -18.457031 5.828125 -19.28125 C 4.929688 -20.113281 4.195312 -21.125 3.625 -22.3125 C 3.050781 -23.5 2.765625 -24.925781 2.765625 -26.59375 C 2.765625 -28.757812 3.257812 -30.613281 4.25 -32.15625 C 5.25 -33.707031 6.675781 -34.894531 8.53125 -35.71875 C 10.382812 -36.539062 12.570312 -36.953125 15.09375 -36.953125 C 16.988281 -36.953125 18.796875 -36.726562 20.515625 -36.28125 C 22.234375 -35.84375 24.035156 -35.210938 25.921875 -34.390625 L 23.421875 -28.375 C 21.742188 -29.0625 20.238281 -29.59375 18.90625 -29.96875 C 17.582031 -30.34375 16.226562 -30.53125 14.84375 -30.53125 C 13.882812 -30.53125 13.0625 -30.375 12.375 -30.0625 C 11.695312 -29.757812 11.179688 -29.328125 10.828125 -28.765625 C 10.484375 -28.210938 10.3125 -27.570312 10.3125 -26.84375 C 10.3125 -25.976562 10.5625 -25.25 11.0625 -24.65625 C 11.570312 -24.0625 12.335938 -23.488281 13.359375 -22.9375 C 14.390625 -22.394531 15.664062 -21.757812 17.1875 -21.03125 C 19.050781 -20.144531 20.644531 -19.222656 21.96875 -18.265625 C 23.289062 -17.316406 24.304688 -16.195312 25.015625 -14.90625 C 25.734375 -13.625 26.09375 -12.023438 26.09375 -10.109375 Z M 26.09375 -10.109375 "/></g></g><g style="fill:#333333;fill-opacity:1;"><g transform="translate(255.518539, 185.459515)"><path style="stroke:none" d="M 15.46875 -28.375 C 18.050781 -28.375 20.269531 -27.878906 22.125 -26.890625 C 23.988281 -25.910156 25.425781 -24.476562 26.4375 -22.59375 C 27.445312 -20.71875 27.953125 -18.425781 27.953125 -15.71875 L 27.953125 -12.03125 L 9.984375 -12.03125 C 10.066406 -9.894531 10.710938 -8.210938 11.921875 -6.984375 C 13.128906 -5.765625 14.800781 -5.15625 16.9375 -5.15625 C 18.71875 -5.15625 20.347656 -5.335938 21.828125 -5.703125 C 23.304688 -6.066406 24.828125 -6.613281 26.390625 -7.34375 L 26.390625 -1.46875 C 25.003906 -0.789062 23.5625 -0.296875 22.0625 0.015625 C 20.5625 0.335938 18.738281 0.5 16.59375 0.5 C 13.800781 0.5 11.328125 -0.015625 9.171875 -1.046875 C 7.023438 -2.078125 5.34375 -3.644531 4.125 -5.75 C 2.90625 -7.863281 2.296875 -10.523438 2.296875 -13.734375 C 2.296875 -16.984375 2.847656 -19.691406 3.953125 -21.859375 C 5.054688 -24.023438 6.59375 -25.648438 8.5625 -26.734375 C 10.539062 -27.828125 12.84375 -28.375 15.46875 -28.375 Z M 15.53125 -22.96875 C 14.050781 -22.96875 12.820312 -22.492188 11.84375 -21.546875 C 10.875 -20.609375 10.316406 -19.125 10.171875 -17.09375 L 20.828125 -17.09375 C 20.816406 -18.21875 20.613281 -19.21875 20.21875 -20.09375 C 19.832031 -20.976562 19.25 -21.675781 18.46875 -22.1875 C 17.695312 -22.707031 16.71875 -22.96875 15.53125 -22.96875 Z M 15.53125 -22.96875 "/></g></g><g style="fill:#333333;fill-opacity:1;"><g transform="translate(285.658105, 185.459515)"><path style="stroke:none" d="M 15.46875 -28.375 C 18.050781 -28.375 20.269531 -27.878906 22.125 -26.890625 C 23.988281 -25.910156 25.425781 -24.476562 26.4375 -22.59375 C 27.445312 -20.71875 27.953125 -18.425781 27.953125 -15.71875 L 27.953125 -12.03125 L 9.984375 -12.03125 C 10.066406 -9.894531 10.710938 -8.210938 11.921875 -6.984375 C 13.128906 -5.765625 14.800781 -5.15625 16.9375 -5.15625 C 18.71875 -5.15625 20.347656 -5.335938 21.828125 -5.703125 C 23.304688 -6.066406 24.828125 -6.613281 26.390625 -7.34375 L 26.390625 -1.46875 C 25.003906 -0.789062 23.5625 -0.296875 22.0625 0.015625 C 20.5625 0.335938 18.738281 0.5 16.59375 0.5 C 13.800781 0.5 11.328125 -0.015625 9.171875 -1.046875 C 7.023438 -2.078125 5.34375 -3.644531 4.125 -5.75 C 2.90625 -7.863281 2.296875 -10.523438 2.296875 -13.734375 C 2.296875 -16.984375 2.847656 -19.691406 3.953125 -21.859375 C 5.054688 -24.023438 6.59375 -25.648438 8.5625 -26.734375 C 10.539062 -27.828125 12.84375 -28.375 15.46875 -28.375 Z M 15.53125 -22.96875 C 14.050781 -22.96875 12.820312 -22.492188 11.84375 -21.546875 C 10.875 -20.609375 10.316406 -19.125 10.171875 -17.09375 L 20.828125 -17.09375 C 20.816406 -18.21875 20.613281 -19.21875 20.21875 -20.09375 C 19.832031 -20.976562 19.25 -21.675781 18.46875 -22.1875 C 17.695312 -22.707031 16.71875 -22.96875 15.53125 -22.96875 Z M 15.53125 -22.96875 "/></g></g></g></svg>